<svg width="70" height="70" viewBox="0 0 70 70" fill="none" xmlns="http://www.w3.org/2000/svg">
<path d="M16.4002 10.1792C21.8311 9.27505 27.2444 11.9876 29.3969 16.2896C30.6453 18.7892 31.4123 21.0263 31.5203 23.1759C31.6223 25.2467 31.1178 27.3876 29.5661 29.7442C27.6878 32.2351 26.069 35.3238 24.8761 39.5034C24.7906 39.7815 24.7615 40.0738 24.7903 40.3633C24.8192 40.6528 24.9056 40.9336 25.0443 41.1894C25.1831 41.4451 25.3715 41.6705 25.5984 41.8526C25.8254 42.0346 26.0863 42.1695 26.3661 42.2494C26.6458 42.3294 26.9387 42.3527 27.2276 42.318C27.5164 42.2834 27.7955 42.1915 28.0484 42.0476C28.3013 41.9038 28.5229 41.711 28.7004 41.4805C28.8779 41.25 29.0076 40.9863 29.0819 40.7051C30.1115 37.1001 31.4736 34.478 33.0836 32.3488L33.1069 32.3196C34.6528 30.2838 36.4319 28.6971 38.3773 27.1338C39.0216 26.619 39.6701 26.1095 40.3228 25.6055C43.6798 22.9951 47.5123 20.0171 51.1261 15.0501C52.8469 15.8871 54.7661 17.3776 56.3936 19.2909C58.3332 21.5659 59.5932 24.1326 59.7711 26.4251C59.0536 27.4751 57.7732 28.2042 56.1369 28.5105C54.2615 28.8605 52.4094 28.5542 51.374 27.9796C51.1225 27.832 50.8439 27.7361 50.5548 27.6976C50.2657 27.6592 49.9718 27.6789 49.6904 27.7558C49.409 27.8326 49.1458 27.9649 48.9163 28.1449C48.6868 28.3249 48.4956 28.5491 48.354 28.8041C48.2124 29.0591 48.1233 29.3398 48.0918 29.6298C48.0602 29.9198 48.0871 30.2131 48.1706 30.4926C48.2541 30.772 48.3927 31.032 48.5782 31.2571C48.7637 31.4822 48.9923 31.6679 49.2507 31.8034C51.3594 32.9759 54.2907 33.3084 56.9419 32.8126C59.6136 32.3109 62.4778 30.8671 63.9361 27.9534L64.1665 27.4955V26.9792C64.1665 23.1205 62.189 19.3521 59.7244 16.4588C57.6828 14.0555 55.0869 12.0021 52.4998 10.8676V8.02089C52.4998 7.44073 52.2694 6.88433 51.8591 6.47409C51.4489 6.06386 50.8925 5.83339 50.3123 5.83339C49.7322 5.83339 49.1758 6.06386 48.7655 6.47409C48.3553 6.88433 48.1248 7.44073 48.1248 8.02089V11.7251C44.759 16.5959 41.2328 19.3434 37.7182 22.0821C37.1134 22.5527 36.5097 23.0281 35.9069 23.5084C35.903 23.3237 35.8972 23.1409 35.8894 22.9601C35.7378 19.9442 34.6819 17.0771 33.3111 14.3326C30.2194 8.15505 22.8286 4.66964 15.6828 5.86255C12.1098 6.45755 8.88984 8.1813 6.56817 10.9609C4.24067 13.7463 2.9165 17.4651 2.9165 21.8751C2.9165 26.2384 5.57942 31.3688 10.7565 32.5267C8.31234 37.4821 6.56234 43.5167 7.31192 49.143C8.0965 55.0259 10.3453 59.6867 14.8428 62.7784C19.2236 65.7942 25.4098 67.0834 33.5415 67.0834H56.1457C56.7258 67.0834 57.2822 66.8529 57.6925 66.4427C58.1027 66.0324 58.3332 65.476 58.3332 64.8959C58.3332 64.3157 58.1027 63.7593 57.6925 63.3491C57.2822 62.9389 56.7258 62.7084 56.1457 62.7084H49.3732C51.0648 60.6638 52.284 58.1059 52.9403 55.5013C53.894 51.7096 53.8065 47.3755 52.1673 43.4526C54.8507 43.718 57.9569 43.3942 61.2848 42.1546C61.5541 42.0543 61.801 41.9019 62.0113 41.7061C62.2217 41.5104 62.3914 41.2751 62.5109 41.0137C62.6303 40.7524 62.6971 40.4701 62.7074 40.1829C62.7178 39.8957 62.6714 39.6093 62.5711 39.3401C62.4707 39.0708 62.3183 38.8239 62.1226 38.6136C61.9268 38.4032 61.6915 38.2335 61.4302 38.114C61.1688 37.9946 60.8865 37.9278 60.5993 37.9174C60.3122 37.9071 60.0258 37.9535 59.7565 38.0538C54.0282 40.1917 49.7582 38.8296 47.9586 37.4996C47.7603 37.3246 47.558 37.1496 47.3519 36.9746C47.0083 36.6812 46.5818 36.5021 46.1317 36.4624C45.6816 36.4227 45.2303 36.5242 44.8407 36.753C44.4187 36.9968 44.0902 37.3745 43.9073 37.8263C43.7445 38.2295 43.7055 38.6721 43.7954 39.0976C43.8853 39.5231 44.0999 39.9121 44.4119 40.2151C44.6355 40.4367 44.8805 40.6516 45.1469 40.8596C49.0028 44.4588 49.8719 49.7701 48.6994 54.4338C47.4219 59.5001 44.1086 62.6967 40.8536 62.7084H33.5415C25.7423 62.7084 20.6236 61.4455 17.3248 59.1734C14.134 56.9801 12.3228 53.6201 11.649 48.5655C10.9607 43.4088 12.9469 37.3509 15.7528 32.4392L15.7878 32.3809C17.5092 31.8738 19.0698 30.9292 20.3173 29.6392C21.939 27.9913 22.9132 26.0138 23.269 24.5934C23.4098 24.0302 23.3211 23.4342 23.0224 22.9365C22.7238 22.4387 22.2396 22.08 21.6765 21.9392C21.1134 21.7984 20.5174 21.8871 20.0196 22.1858C19.5219 22.4844 19.1631 22.9686 19.0223 23.5317C18.8561 24.2055 18.264 25.4859 17.1965 26.5738C16.1757 27.6151 14.799 28.3909 12.9878 28.3909C9.56942 28.3909 7.2915 25.3051 7.2915 21.8751C7.2915 18.3605 8.33275 15.6713 9.92525 13.7667C11.5207 11.8592 13.7694 10.6167 16.4002 10.1792Z" fill="white"/>
</svg>
